# File created by Blade
# Date/Time:  Fri Jan 16 19:41:12 2015
# Frame Rate: 120.000 fps
#------------------------------------------------------
:FULLY-SPECIFIED
:DEGREES
1311
root 19.610746 35.542283 -22.461957 10.170440 3.231375 -0.691281
Spine -21.445303 -0.299246 -3.043361
Head 9.231194 -0.532988 1.233954
LeftShoulder -15.402732 -30.608405 22.915797
LeftArm -6.035558 -0.313269 -5.105278
LeftForeArm 14.087817 0.000000 -2.295357
LeftHand -3.030561 0.000000 -4.098561
LeftHandThumb1 -26.253704 0.000000 33.147579
RightShoulder -11.514460 -3.103192 -10.601400
RightArm -0.206002 34.954232 6.820764
RightForeArm -38.704175 -0.000000 6.502263
RightHand -5.772557 -0.000000 7.003887
RightHandThumb1 -24.326973 -0.000000 -32.862282
LeftUpLeg -1.680604 4.455444 -0.591923
LeftLeg -6.409474 -0.000000 0.000000
LeftFoot -20.536757 27.554294 -12.799604
LeftToeBase 24.188883 -0.000000 -0.000000
RightUpLeg -2.588733 -10.885381 -1.706665
RightLeg -3.377185 -0.000000 0.000000
RightFoot -21.180983 -26.961081 18.251816
RightToeBase 23.547018 -0.000000 -0.000000
1312
root 19.547264 35.540022 -22.432658 10.066907 3.291009 -0.692482
Spine -21.351352 -0.320106 -2.978977
Head 9.219528 -0.330147 1.120975
LeftShoulder -15.495144 -30.504686 22.968493
LeftArm -5.971569 -0.233857 -5.138957
LeftForeArm 13.921322 0.000000 -2.334318
LeftHand -3.103387 0.000000 -4.218319
LeftHandThumb1 -26.253704 0.000000 33.147579
RightShoulder -11.522801 -3.062492 -10.637832
RightArm -0.331324 34.909687 6.691161
RightForeArm -38.645177 -0.000000 6.557678
RightHand -5.983134 -0.000000 6.925430
RightHandThumb1 -24.326973 -0.000000 -32.862282
LeftUpLeg -1.578455 4.467144 -0.471570
LeftLeg -6.345267 -0.000000 0.000000
LeftFoot -20.584260 27.519639 -12.847944
LeftToeBase 24.182379 -0.000000 -0.000000
RightUpLeg -2.390164 -10.716555 -1.639510
RightLeg -3.436754 -0.000000 0.000000
RightFoot -21.283547 -27.126503 18.244050
RightToeBase 23.443712 -0.000000 -0.000000
1313
root 19.482195 35.537680 -22.400928 9.951611 3.368317 -0.685399
Spine -21.261224 -0.358801 -2.940104
Head 9.212435 -0.157734 1.045652
LeftShoulder -15.475656 -30.381929 22.977507
LeftArm -5.981428 -0.422093 -5.094244
LeftForeArm 13.914922 -0.000000 -2.362438
LeftHand -3.198722 -0.000000 -4.455396
LeftHandThumb1 -26.253704 0.000000 33.147579
RightShoulder -11.563337 -3.122995 -10.630667
RightArm -0.358946 35.033865 6.600791
RightForeArm -38.600184 -0.000000 6.516815
RightHand -6.114746 -0.000000 6.807534
RightHandThumb1 -24.326973 -0.000000 -32.862282
LeftUpLeg -1.477888 4.480823 -0.354479
LeftLeg -6.252137 -0.000000 0.000000
LeftFoot -20.626131 27.514386 -12.891803
LeftToeBase 24.254499 -0.000000 -0.000000
RightUpLeg -2.167338 -10.601543 -1.572753
RightLeg -3.512199 -0.000000 0.000000
RightFoot -21.378758 -27.265504 18.193574
RightToeBase 23.464406 -0.000000 -0.000000
1314
root 19.418379 35.536161 -22.373256 9.850247 3.453730 -0.688946
Spine -21.178085 -0.379601 -2.888466
Head 9.246758 -0.044162 0.947975
LeftShoulder -15.480439 -30.342662 22.985983
LeftArm -5.947927 -0.229418 -5.109303
LeftForeArm 13.682259 -0.000000 -2.378813
LeftHand -3.231186 -0.000000 -4.596041
LeftHandThumb1 -26.253704 0.000000 33.147579
RightShoulder -11.613736 -3.140365 -10.637054
RightArm -0.427666 35.079192 6.505970
RightForeArm -38.548033 -0.000000 6.559712
RightHand -6.347896 -0.000000 6.749978
RightHandThumb1 -24.326973 -0.000000 -32.862282
LeftUpLeg -1.403819 4.489321 -0.231899
LeftLeg -6.151945 -0.000000 0.000000
LeftFoot -20.675822 27.471885 -12.912816
LeftToeBase 24.296763 -0.000000 -0.000000
RightUpLeg -1.981305 -10.468638 -1.493771
RightLeg -3.554592 -0.000000 0.000000
RightFoot -21.488375 -27.428056 18.184136
RightToeBase 23.417551 -0.000000 -0.000000
1315
root 19.357111 35.533887 -22.342261 9.741595 3.548018 -0.675387
Spine -21.097971 -0.407186 -2.860151
Head 9.294420 0.057249 0.883454
LeftShoulder -15.418921 -30.366850 22.985661
LeftArm -5.996697 -0.076674 -5.080402
LeftForeArm 13.437813 -0.000000 -2.361444
LeftHand -3.278573 -0.000000 -4.810414
LeftHandThumb1 -26.253704 0.000000 33.147579
RightShoulder -11.680321 -3.174428 -10.642443
RightArm -0.479972 35.263348 6.428277
RightForeArm -38.796238 0.000000 6.612182
RightHand -6.452413 0.000000 6.783309
RightHandThumb1 -24.326973 -0.000000 -32.862282
LeftUpLeg -1.315272 4.468499 -0.127175
LeftLeg -6.055806 -0.000000 0.000000
LeftFoot -20.726180 27.442381 -12.952600
LeftToeBase 24.347705 -0.000000 -0.000000
RightUpLeg -1.764478 -10.412213 -1.429438
RightLeg -3.633660 -0.000000 0.000000
RightFoot -21.588736 -27.536542 18.172111
RightToeBase 23.394165 -0.000000 -0.000000
1316
root 19.295506 35.531234 -22.312147 9.638174 3.680271 -0.668898
Spine -21.034162 -0.480535 -2.816342
Head 9.367969 0.197320 0.861023
LeftShoulder -15.406324 -30.283644 22.989836
LeftArm -5.918705 -0.148312 -5.094584
LeftForeArm 13.279948 -0.000000 -2.428423
LeftHand -3.310533 -0.000000 -4.958863
LeftHandThumb1 -26.253704 0.000000 33.147579
RightShoulder -11.717070 -3.201230 -10.629987
RightArm -0.496964 35.259048 6.336446
RightForeArm -38.556681 -0.000000 6.528088
RightHand -6.498477 0.000000 6.638911
RightHandThumb1 -24.326973 -0.000000 -32.862282
LeftUpLeg -1.236369 4.389468 -0.008351
LeftLeg -5.963482 -0.000000 0.000000
LeftFoot -20.769996 27.455568 -12.976827
LeftToeBase 24.357977 -0.000000 -0.000000
RightUpLeg -1.555804 -10.364444 -1.353012
RightLeg -3.696920 -0.000000 0.000000
RightFoot -21.691825 -27.670457 18.149051
RightToeBase 23.383106 -0.000000 -0.000000
1317
root 19.237042 35.528485 -22.280857 9.519157 3.773818 -0.661408
Spine -20.960162 -0.531020 -2.771481
Head 9.457672 0.291563 0.804432
LeftShoulder -15.426033 -30.214391 23.006095
LeftArm -5.818396 -0.203136 -5.118647
LeftForeArm 13.051488 -0.000000 -2.494568
LeftHand -3.375064 -0.000000 -5.094290
LeftHandThumb1 -26.253704 0.000000 33.147579
RightShoulder -11.746438 -3.214813 -10.631743
RightArm -0.493979 35.318483 6.277711
RightForeArm -38.570882 -0.000000 6.525751
RightHand -6.701241 -0.000000 6.556477
RightHandThumb1 -24.326973 -0.000000 -32.862282
LeftUpLeg -1.131849 4.381067 0.100412
LeftLeg -5.878612 -0.000000 0.000000
LeftFoot -20.815711 27.405368 -13.006996
LeftToeBase 24.388346 -0.000000 -0.000000
RightUpLeg -1.331478 -10.283951 -1.292825
RightLeg -3.764233 -0.000000 0.000000
RightFoot -21.772114 -27.802669 18.107094
RightToeBase 23.313983 -0.000000 -0.000000
1318
root 19.177805 35.526620 -22.255382 9.448629 3.916718 -0.645731
Spine -20.936565 -0.628132 -2.735599
Head 9.581992 0.337782 0.765609
LeftShoulder -15.349049 -30.227983 22.968365
LeftArm -5.810957 -0.287349 -5.040987
LeftForeArm 13.034321 -0.000000 -2.530163
LeftHand -3.349840 -0.000000 -5.259884
LeftHandThumb1 -26.253704 0.000000 33.147579
RightShoulder -11.788228 -3.253800 -10.640343
RightArm -0.482177 35.418031 6.261328
RightForeArm -38.570926 -0.000000 6.520958
RightHand -6.772915 -0.000000 6.501996
RightHandThumb1 -24.326973 -0.000000 -32.862282
LeftUpLeg -1.121312 4.341005 0.201170
LeftLeg -5.731765 -0.000000 0.000000
LeftFoot -20.878534 27.342505 -13.034708
LeftToeBase 24.486227 -0.000000 -0.000000
RightUpLeg -1.148755 -10.247071 -1.218585
RightLeg -3.853963 -0.000000 0.000000
RightFoot -21.860870 -27.933117 18.102163
RightToeBase 23.315279 -0.000000 -0.000000
1319
root 19.122206 35.524362 -22.227904 9.368940 4.090318 -0.630939
Spine -20.907049 -0.768956 -2.682209
Head 9.704808 0.398958 0.751880
LeftShoulder -15.344390 -30.239598 22.961780
LeftArm -5.746520 -0.279115 -5.037859
LeftForeArm 12.890338 -0.000000 -2.490299
LeftHand -3.518479 0.000000 -5.307623
LeftHandThumb1 -26.253704 0.000000 33.147579
RightShoulder -11.769932 -3.182785 -10.678229
RightArm -0.558643 35.408676 6.198716
RightForeArm -38.507017 -0.000000 6.552440
RightHand -6.867592 -0.000000 6.551005
RightHandThumb1 -24.326973 -0.000000 -32.862282
LeftUpLeg -1.075139 4.223611 0.305478
LeftLeg -5.643837 -0.000000 0.000000
LeftFoot -20.918287 27.343836 -13.066153
LeftToeBase 24.531251 -0.000000 -0.000000
RightUpLeg -0.949946 -10.232606 -1.151876
RightLeg -3.940445 -0.000000 0.000000
RightFoot -21.950594 -28.061975 18.110577
RightToeBase 23.217340 -0.000000 -0.000000
1320
root 19.067693 35.521628 -22.199425 9.297568 4.230886 -0.616154
Spine -20.898068 -0.877374 -2.640695
Head 9.846153 0.418830 0.723598
LeftShoulder -15.342164 -30.268703 22.999087
LeftArm -5.702262 -0.322576 -5.067177
LeftForeArm 12.876235 -0.000000 -2.449424
LeftHand -3.533775 -0.000000 -5.327062
LeftHandThumb1 -26.253704 0.000000 33.147579
RightShoulder -11.808126 -3.186699 -10.690202
RightArm -0.504101 35.434082 6.188627
RightForeArm -38.525270 -0.000000 6.528412
RightHand -6.970451 -0.000000 6.520526
RightHandThumb1 -24.326973 -0.000000 -32.862282
LeftUpLeg -1.057236 4.216113 0.394348
LeftLeg -5.507396 -0.000000 0.000000
LeftFoot -20.984192 27.265086 -13.099949
LeftToeBase 24.539301 -0.000000 -0.000000
RightUpLeg -0.763780 -10.219295 -1.084574
RightLeg -4.028144 -0.000000 0.000000
RightFoot -22.034727 -28.179616 18.102585
RightToeBase 23.213592 -0.000000 -0.000000
1321
root 19.015204 35.519735 -22.174289 9.254933 4.375071 -0.596788
Spine -20.916348 -0.993991 -2.597335
Head 10.004378 0.381153 0.678059
LeftShoulder -15.343571 -30.268216 23.005220
LeftArm -5.607242 -0.389441 -5.092320
LeftForeArm 12.931289 -0.000000 -2.450300
LeftHand -3.575335 -0.000000 -5.317762
LeftHandThumb1 -26.253704 0.000000 33.147579
RightShoulder -11.822017 -3.203750 -10.689385
RightArm -0.463676 35.474815 6.157042
RightForeArm -38.382982 -0.000000 6.457442
RightHand -7.030791 -0.000000 6.370731
RightHandThumb1 -24.326973 -0.000000 -32.862282
LeftUpLeg -1.047513 4.129329 0.483385
LeftLeg -5.415396 -0.000000 0.000000
LeftFoot -21.010539 27.246364 -13.127811
LeftToeBase 24.560079 -0.000000 -0.000000
RightUpLeg -0.619710 -10.206620 -1.022277
RightLeg -4.097572 -0.000000 0.000000
RightFoot -22.111008 -28.285367 18.080105
RightToeBase 23.182085 -0.000000 -0.000000
